v 1.0 1.0 1.0
v -1.0 1.0 1.0
v 1.0 -1.0 1.0
v -1.0 -1.0 1.0
v 1.0 1.0 -1.0
v -1.0 1.0 -1.0
v 1.0 -1.0 -1.0
v -1.0 -1.0 -1.0
vt 0.0 0.0
vt 1.0 0.0
vt 0.0 1.0
vt 1.0 1.0
vn 0.0 0.0 1.0
vn 0.0 1.0 0.0
vn 1.0 0.0 0.0
vn -1.0 0.0 0.0
vn 0.0 -1.0 0.0
vn 0.0 0.0 -1.0
f 1/3/3 7/2/3 5/4/3
f 1/3/3 3/1/3 7/2/3
f 2/1/2 1/2/2 5/4/2
f 2/1/2 5/4/2 6/3/2
f 2/3/1 4/1/1 3/2/1
f 2/3/1 3/2/1 1/4/1
f 6/2/4 8/4/4 4/3/4
f 6/2/4 4/3/4 2/1/4
f 6/1/6 5/2/6 8/3/6
f 5/2/6 7/4/6 8/3/6
f 3/3/5 4/1/5 7/4/5
f 7/4/5 4/1/5 8/2/5
